<?xml version="1.0" encoding="utf-8"?>
<!-- Generator: Adobe Illustrator 26.2.0, SVG Export Plug-In . SVG Version: 6.00 Build 0)  -->
<svg version="1.1" id="Layer_1" xmlns="http://www.w3.org/2000/svg" xmlns:xlink="http://www.w3.org/1999/xlink" x="0px" y="0px"
	 viewBox="0 0 29.2 29.2" style="enable-background:new 0 0 29.2 29.2;" xml:space="preserve">
<style type="text/css">
	.st0{fill:#FFFFFF;}
</style>
<g id="a">
</g>
<g id="b">
	<g id="c">
		<path class="st0" d="M14.6,0C6.5,0,0,6.6,0,14.6s6.5,14.6,14.6,14.6s14.6-6.5,14.6-14.6S22.7,0,14.6,0z M10,9h9
			c0.8,0,1.5,0.2,2,0.7l-5.4,5.4c-0.7,0.7-1.8,0.7-2.4,0L7.8,9.7C8.4,9.3,9.1,9,10,9z M22.5,16.7c0,1.9-1.6,3.5-3.5,3.5h-9
			c-1.9,0-3.5-1.6-3.5-3.5v-4.2c0-0.8,0.2-1.5,0.7-2l5.3,5.3c0.5,0.5,1.2,0.8,1.9,0.8s1.4-0.3,1.9-0.8l5.4-5.4
			c0.5,0.6,0.7,1.3,0.7,2.2V16.7z"/>
	</g>
</g>
</svg>
