<?xml version="1.0" encoding="utf-8"?>
<!-- Generator: Adobe Illustrator 26.2.0, SVG Export Plug-In . SVG Version: 6.00 Build 0)  -->
<svg version="1.1" id="Layer_1" xmlns="http://www.w3.org/2000/svg" xmlns:xlink="http://www.w3.org/1999/xlink" x="0px" y="0px"
	 viewBox="0 0 29.2 29.2" style="enable-background:new 0 0 29.2 29.2;" xml:space="preserve">
<style type="text/css">
	.st0{fill:#FFFFFF;}
</style>
<g id="a">
</g>
<g id="b">
	<g id="c">
		<g>
			<path class="st0" d="M14.7,11.9c-1.5,0-2.7,1.2-2.7,2.7s1.2,2.7,2.7,2.7s2.7-1.2,2.7-2.7S16.2,11.9,14.7,11.9z"/>
			<path class="st0" d="M14.6,0C6.6,0,0,6.6,0,14.6s6.6,14.6,14.6,14.6s14.6-6.6,14.6-14.6S22.7,0,14.6,0z M23.2,18
				c0,2.8-2.3,5.1-5.1,5.1h-6.8C8.4,23.2,6,20.9,6,18v-6.8C6,8.3,8.4,6,11.2,6H18c2.8,0,5.1,2.3,5.1,5.2V18z"/>
			<path class="st0" d="M18,7.6h-6.8c-1.9,0-3.5,1.6-3.5,3.5V18c0,2,1.6,3.5,3.5,3.5H18c2,0,3.5-1.6,3.5-3.5v-6.8
				C21.6,9.2,20,7.6,18,7.6z M14.7,18.8c-2.3,0-4.2-1.9-4.2-4.2s1.9-4.2,4.2-4.2s4.2,1.9,4.2,4.2S17,18.8,14.7,18.8z M19.2,11.1
				c-0.5,0-1-0.4-1-1s0.5-1,1-1s1,0.4,1,1S19.7,11.1,19.2,11.1z"/>
		</g>
	</g>
</g>
</svg>
