<?xml version="1.0" encoding="utf-8"?>
<!-- Generator: Adobe Illustrator 26.2.0, SVG Export Plug-In . SVG Version: 6.00 Build 0)  -->
<svg version="1.1" id="Layer_1" xmlns="http://www.w3.org/2000/svg" xmlns:xlink="http://www.w3.org/1999/xlink" x="0px" y="0px"
	 viewBox="0 0 29.2 29.2" style="enable-background:new 0 0 29.2 29.2;" xml:space="preserve">
<style type="text/css">
	.st0{fill:#FFFFFF;}
</style>
<g id="a">
</g>
<g id="b">
	<g id="c">
		<path class="st0" d="M14.6,0C6.6,0,0,6.6,0,14.6s6.6,14.6,14.6,14.6s14.6-6.6,14.6-14.6S22.7,0,14.6,0z M11.3,21H8.5v-9.1h2.8V21z
			 M9.9,10.7C9,10.7,8.3,9.9,8.3,9S9,7.4,9.9,7.4s1.6,0.7,1.6,1.6S10.8,10.7,9.9,10.7z M21.9,21h-2.8v-4.4c0-1.1,0-2.4-1.5-2.4
			s-1.7,1.1-1.7,2.3V21h-2.8v-9.1h2.7v1.2h0c0.4-0.7,1.3-1.5,2.7-1.5c2.9,0,3.4,1.9,3.4,4.3L21.9,21L21.9,21z"/>
	</g>
</g>
</svg>
