<?xml version="1.0" encoding="UTF-8"?><svg xmlns="http://www.w3.org/2000/svg" viewBox="0 0 541.915 375.03"><defs><style>.d{fill:#fff;}</style></defs><g id="a"/><g id="b"><g id="c"><g><g><path class="d" d="M83.979,318.604c-.084-.009-.177-.009-.261-.009-.075,0-.149,0-.224,.009-9.541,.112-17.234,7.889-17.234,17.458s7.674,17.318,17.196,17.448c.084,.009,.177,.009,.261,.009s.177,0,.261-.009c9.522-.131,17.196-7.889,17.196-17.448s-7.674-17.327-17.196-17.458Zm3.865,25.701c0,2.278-1.848,4.117-4.126,4.117s-4.117-1.839-4.117-4.117v-16.496c0-2.241,1.774-4.061,4.005-4.117,.037-.009,.075-.009,.112-.009s.075,0,.112,.009c2.231,.056,4.014,1.876,4.014,4.117v16.496Z"/><path class="d" d="M83.83,323.692h-.224c.037-.009,.075-.009,.112-.009s.075,0,.112,.009Z"/><path class="d" d="M83.83,323.692h-.224c.037-.009,.075-.009,.112-.009s.075,0,.112,.009Z"/><path class="d" d="M335.517,321.144c0,.719-.299,1.363-.775,1.82-.019,.028-.037,.047-.056,.056l-.056,.056c-.009,.019-.019,.028-.037,.037-.439,.355-.999,.579-1.615,.579h-5.116v7.842c-.009-.009-.019-.009-.028-.009v12.855c0,2.175,.401,4.266,1.13,6.19,.392,1.036,.878,2.026,1.456,2.959-1.531-.131-3.006-.457-4.397-.971-6.591-2.381-11.334-8.626-11.511-15.992-.009-.14-.009-.289-.009-.429v-12.445h-2.493c-1.41,0-2.549-1.139-2.549-2.549,0-.85,.42-1.606,1.055-2.063,.42-.308,.943-.485,1.494-.485h2.511c6.507-1.559,11.595-6.759,12.986-13.331,.159-.728,.271-1.484,.327-2.25,.009,.075,.019,.149,.009,.224,.009,.056,.009,.112,.009,.177,.009,.056,.009,.121,.009,.177v15.003h5.116c1.4,0,2.539,1.139,2.539,2.549Z"/><path class="d" d="M65.07,344.642l-.056,.056c-.009,.019-.019,.028-.037,.037-.439,.355-.999,.579-1.615,.579-1.326,0-2.409-.999-2.539-2.287v-17.813c0-2.987-1.97-5.517-4.696-6.367-.047-.019-.103-.028-.149-.037-.635-.131-1.298-.196-1.97-.215-.243,0-.485,.009-.728,.019-.289,.019-.569,.037-.85,.075-.009-.009-.028,0-.037,0-5.583,.56-10.391,3.762-13.154,8.337v-1.811c0-2.987-1.97-5.517-4.696-6.367-.047-.019-.103-.028-.149-.037-.635-.131-1.298-.196-1.97-.215-.243,0-.485,.009-.728,.019-.289,.019-.57,.037-.85,.075-.009-.009-.028,0-.037,0-5.583,.56-10.391,3.762-13.154,8.337v-1.811c0-2.987-1.97-5.517-4.696-6.367-.047-.019-.103-.028-.149-.037-.7-.14-1.428-.215-2.175-.215-.149,0-.299,0-.448,.009-5.144,.205-9.354,4.014-10.185,8.972,.019-.028,.037-.047,.056-.056l.056-.056c.009-.019,.019-.028,.037-.037,.439-.355,.999-.579,1.615-.579,1.41,0,2.549,1.139,2.549,2.549v17.448c0,3.688,2.987,6.675,6.666,6.675s6.675-2.987,6.675-6.675v-17.131c0-2.278,1.849-4.126,4.126-4.126,.112,0,.224,0,.336,.019,1.624,.131,2.987,1.214,3.529,2.689,.159,.336,.252,.71,.252,1.102v17.448c0,3.678,2.978,6.666,6.647,6.675h.047c3.678-.019,6.647-2.997,6.647-6.675v-17.131c0-2.278,1.849-4.126,4.126-4.126,.112,0,.224,0,.336,.019,1.624,.131,2.987,1.214,3.529,2.689,.159,.336,.252,.71,.252,1.102v10.839h-.009v6.712c0,.159,.028,.308,.037,.457,.009,.056,.009,.121,.019,.177,.252,2.698,2.11,4.948,4.64,5.732,.047,.019,.103,.028,.149,.037,.7,.14,1.428,.215,2.175,.215,.149,0,.299,0,.448-.009,5.144-.205,9.354-4.014,10.185-8.972-.019,.028-.037,.047-.056,.056Z"/><path class="d" d="M408.07,344.642l-.056,.056c-.009,.019-.019,.028-.037,.037-.439,.355-.999,.579-1.615,.579-1.326,0-2.409-.999-2.539-2.287v-17.813c0-2.987-1.97-5.517-4.696-6.367-.047-.019-.103-.028-.149-.037-.635-.131-1.298-.196-1.97-.215-.243,0-.485,.009-.728,.019-.289,.019-.569,.037-.85,.075-.009-.009-.028,0-.037,0-5.583,.56-10.391,3.762-13.154,8.337v-1.811c0-2.987-1.97-5.517-4.696-6.367-.047-.019-.103-.028-.149-.037-.635-.131-1.298-.196-1.97-.215-.243,0-.485,.009-.728,.019-.289,.019-.57,.037-.85,.075-.009-.009-.028,0-.037,0-5.583,.56-10.391,3.762-13.154,8.337v-1.811c0-2.987-1.97-5.517-4.696-6.367-.047-.019-.103-.028-.149-.037-.7-.14-1.428-.215-2.175-.215-.149,0-.299,0-.448,.009-5.144,.205-9.354,4.014-10.185,8.972,.019-.028,.037-.047,.056-.056l.056-.056c.009-.019,.019-.028,.037-.037,.439-.355,.999-.579,1.615-.579,1.41,0,2.549,1.139,2.549,2.549v17.448c0,3.688,2.987,6.675,6.666,6.675s6.675-2.987,6.675-6.675v-17.131c0-2.278,1.849-4.126,4.126-4.126,.112,0,.224,0,.336,.019,1.624,.131,2.987,1.214,3.529,2.689,.159,.336,.252,.71,.252,1.102v17.448c0,3.678,2.978,6.666,6.647,6.675h.047c3.678-.019,6.647-2.997,6.647-6.675v-17.131c0-2.278,1.849-4.126,4.126-4.126,.112,0,.224,0,.336,.019,1.624,.131,2.987,1.214,3.529,2.689,.159,.336,.252,.71,.252,1.102v10.839h-.009v6.712c0,.159,.028,.308,.037,.457,.009,.056,.009,.121,.019,.177,.252,2.698,2.11,4.948,4.64,5.732,.047,.019,.103,.028,.149,.037,.7,.14,1.428,.215,2.175,.215,.149,0,.299,0,.448-.009,5.144-.205,9.354-4.014,10.185-8.972-.019,.028-.037,.047-.056,.056Z"/><path class="d" d="M184.413,344.642l-.056,.056c-.009,.019-.019,.028-.037,.037-.439,.355-.999,.579-1.615,.579-1.326,0-2.409-.999-2.539-2.287v-17.813c0-2.987-1.97-5.517-4.696-6.367-.047-.019-.103-.028-.149-.037-.635-.131-1.298-.196-1.97-.215-.243,0-.485,.009-.728,.019-.289,.019-.569,.037-.85,.075-.009-.009-.028,0-.037,0-5.583,.56-10.391,3.762-13.154,8.337v-1.811c0-2.987-1.97-5.517-4.696-6.367-.047-.019-.103-.028-.149-.037-.7-.14-1.428-.215-2.175-.215-.149,0-.299,0-.448,.009-5.144,.205-9.354,4.014-10.185,8.972,.019-.028,.037-.047,.056-.056l.056-.056c.009-.019,.019-.028,.037-.037,.439-.355,.999-.579,1.615-.579,1.41,0,2.549,1.139,2.549,2.549v17.448c0,3.688,2.987,6.675,6.666,6.675s6.675-2.987,6.675-6.675v-17.131c0-2.278,1.848-4.126,4.126-4.126,.112,0,.224,0,.336,.019,1.624,.131,2.987,1.214,3.529,2.689,.159,.336,.252,.71,.252,1.102v10.839h-.009v6.712c0,.157,.027,.306,.038,.46,.005,.057,.008,.115,.014,.172,.257,2.705,2.114,4.947,4.644,5.735,.047,.019,.103,.028,.149,.037,.7,.14,1.428,.215,2.175,.215,.149,0,.299,0,.448-.009,5.144-.205,9.354-4.014,10.185-8.972-.019,.028-.037,.047-.056,.056Z"/><path class="d" d="M471.147,344.642l-.056,.056c-.009,.019-.019,.028-.037,.037-.439,.355-.999,.579-1.615,.579-1.326,0-2.409-.999-2.539-2.287v-17.813c0-2.987-1.97-5.517-4.696-6.367-.047-.019-.103-.028-.149-.037-.635-.131-1.298-.196-1.97-.215-.243,0-.485,.009-.728,.019-.289,.019-.569,.037-.85,.075-.009-.009-.028,0-.037,0-5.583,.56-10.391,3.762-13.154,8.337v-1.811c0-2.987-1.97-5.517-4.696-6.367-.047-.019-.103-.028-.149-.037-.7-.14-1.428-.215-2.175-.215-.149,0-.299,0-.448,.009-5.144,.205-9.354,4.014-10.185,8.972,.019-.028,.037-.047,.056-.056l.056-.056c.009-.019,.019-.028,.037-.037,.439-.355,.999-.579,1.615-.579,1.41,0,2.549,1.139,2.549,2.549v17.448c0,3.688,2.987,6.675,6.666,6.675s6.675-2.987,6.675-6.675v-17.131c0-2.278,1.848-4.126,4.126-4.126,.112,0,.224,0,.336,.019,1.624,.131,2.987,1.214,3.529,2.689,.159,.336,.252,.71,.252,1.102v10.839h-.009v6.712c0,.157,.027,.306,.038,.46,.005,.057,.008,.115,.014,.172,.257,2.705,2.114,4.947,4.644,5.735,.047,.019,.103,.028,.149,.037,.7,.14,1.428,.215,2.175,.215,.149,0,.299,0,.448-.009,5.144-.205,9.354-4.014,10.185-8.972-.019,.028-.037,.047-.056,.056Z"/><g><circle class="d" cx="224.247" cy="310.295" r="6.669"/><path class="d" d="M230.916,325.218v21.631c0,3.688-2.987,6.675-6.675,6.675s-6.666-2.987-6.666-6.675v-17.448c0-1.41-1.139-2.549-2.549-2.549-.616,0-1.176,.224-1.615,.579-.019,.009-.028,.019-.037,.037l-.056,.056c-.019,.009-.037,.028-.056,.056,.831-4.957,5.041-8.766,10.185-8.972,.149-.009,.299-.009,.448-.009,.747,0,1.475,.075,2.175,.215,.047,.009,.103,.019,.149,.037,2.726,.85,4.696,3.38,4.696,6.367Z"/></g><g><circle class="d" cx="417.848" cy="310.295" r="6.669"/><path class="d" d="M424.517,325.218v21.631c0,3.688-2.987,6.675-6.675,6.675s-6.666-2.987-6.666-6.675v-17.448c0-1.41-1.139-2.549-2.549-2.549-.616,0-1.176,.224-1.615,.579-.019,.009-.028,.019-.037,.037l-.056,.056c-.019,.009-.037,.028-.056,.056,.831-4.957,5.041-8.766,10.185-8.972,.149-.009,.299-.009,.448-.009,.747,0,1.475,.075,2.175,.215,.047,.009,.103,.019,.149,.037,2.726,.85,4.696,3.38,4.696,6.367Z"/></g><path class="d" d="M83.83,323.692h-.224c.037-.009,.075-.009,.112-.009s.075,0,.112,.009Z"/><path class="d" d="M209.312,303.536v43.312c0,3.688-2.987,6.675-6.675,6.675s-6.666-2.987-6.666-6.675v-39.13c0-1.41-1.139-2.549-2.549-2.549-.616,0-1.176,.224-1.615,.579-.019,.009-.028,.019-.037,.037l-.056,.056c-.019,.009-.037,.028-.056,.056,.831-4.957,5.041-8.766,10.185-8.972,.149-.009,.299-.009,.448-.009,.747,0,1.475,.075,2.175,.215,.047,.009,.103,.019,.149,.037,2.726,.85,4.696,3.38,4.696,6.367Z"/><path class="d" d="M121.135,323.683c-.037,0-.075,0-.112,.009h.224c-.037-.009-.075-.009-.112-.009Z"/><path class="d" d="M121.397,318.604c-.084-.009-.177-.009-.261-.009-.075,0-.149,0-.224,.009-9.541,.112-17.234,7.889-17.234,17.458s7.674,17.318,17.196,17.448c.084,.009,.177,.009,.261,.009s.177,0,.261-.009c9.522-.131,17.206-7.889,17.206-17.448s-7.683-17.327-17.206-17.458Zm3.865,25.701c0,2.278-1.848,4.117-4.126,4.117s-4.117-1.839-4.117-4.117v-16.496c0-2.241,1.783-4.061,4.005-4.117,.037-.009,.075-.009,.112-.009s.075,0,.112,.009c2.231,.056,4.014,1.876,4.014,4.117v16.496Z"/><path class="d" d="M121.247,323.692h-.224c.037-.009,.075-.009,.112-.009s.075,0,.112,.009Z"/><path class="d" d="M121.247,323.692h-.224c.037-.009,.075-.009,.112-.009s.075,0,.112,.009Z"/><path class="d" d="M252.004,318.604c-.084-.009-.177-.009-.261-.009-.075,0-.149,0-.224,.009-9.541,.112-17.234,7.889-17.234,17.458,0,4.07,1.391,7.823,3.744,10.792,.439,.569,.915,1.102,1.428,1.596,2.921,2.912,6.851,4.779,11.237,5.041h0c.252,.01,.664,.019,1.31,.019,1.335-.009,2.623-.177,3.865-.485v12.855c0,3.352-.943,6.488-2.586,9.149,8.925-.775,15.917-8.271,15.917-17.392v-21.575c0-9.56-7.674-17.327-17.196-17.458Zm3.865,25.701c0,2.278-1.848,4.117-4.126,4.117s-4.117-1.839-4.117-4.117v-16.496c0-2.241,1.774-4.061,4.005-4.117,.037-.009,.075-.009,.112-.009s.075,0,.112,.009c2.231,.056,4.014,1.876,4.014,4.117v16.496Z"/><path class="d" d="M304.167,325.223c-.429-.551-.896-1.074-1.4-1.568-2.913-2.894-6.852-4.761-11.222-5.023-.243-.009-.495-.019-.738-.019h-.635c-1.307,.019-2.586,.187-3.809,.485v-12.865c0-3.398,.971-6.572,2.651-9.252-8.953,.747-15.983,8.243-15.983,17.392v32.479c0,3.678,2.978,6.666,6.666,6.666,1.512,0,2.903-.504,4.024-1.363,1.606-1.204,2.642-3.137,2.642-5.303v-19.036c0-2.278,1.849-4.126,4.126-4.126s4.117,1.848,4.117,4.126v19.036c0,2.166,1.036,4.089,2.642,5.303,1.12,.859,2.511,1.363,4.033,1.363,3.678,0,6.666-2.987,6.666-6.666v-10.792c0-4.098-1.41-7.87-3.781-10.839Z"/><path class="d" d="M541.915,321.144c0,1.391-1.111,2.521-2.493,2.549h-.056c-.093,0-.196-.009-.289-.009-.766,0-1.522,.047-2.269,.159-2.847,.355-5.471,1.41-7.711,2.978v20.025c0,.859-.159,1.68-.457,2.427-.541,1.382-1.512,2.53-2.763,3.277-1.008,.616-2.185,.971-3.454,.971-3.678,0-6.666-2.987-6.666-6.675v-17.448c0-1.41-1.139-2.549-2.549-2.549-.616,0-1.176,.224-1.615,.579-.019,.009-.028,.019-.037,.037l-.056,.056c-.019,.009-.037,.028-.056,.056,.831-4.957,5.041-8.766,10.185-8.972,.149-.009,.299-.009,.448-.009,.747,0,1.475,.075,2.175,.215,.047,.009,.103,.019,.149,.037,1.96,.607,3.529,2.091,4.248,3.977,2.791-2.418,6.358-3.949,10.269-4.192h.019c.224-.019,.448-.028,.672-.028h.019c.429,.047,.84,.205,1.186,.439,.663,.457,1.102,1.232,1.102,2.101Z"/><path class="d" d="M510.607,344.595l-.056,.056c-.009,.019-.019,.028-.037,.037-.439,.355-.999,.579-1.615,.579-1.41,0-2.549-1.139-2.549-2.549v-17.448c0-3.688-2.987-6.675-6.666-6.675-1.522,0-2.913,.504-4.033,1.363-2.007-.85-4.201-1.326-6.507-1.354-.084,0-.168-.009-.252-.009h-.009c-.075,0-.149,0-.224,.009-9.541,.121-17.234,7.889-17.234,17.458,0,9.644,7.823,17.458,17.467,17.458,2.381,0,4.649-.476,6.722-1.344,.616,.485,1.326,.859,2.091,1.092,.047,.019,.103,.028,.149,.037,.7,.14,1.428,.215,2.175,.215,.149,0,.299,0,.448-.009,5.144-.205,9.354-4.014,10.185-8.972-.019,.028-.037,.047-.056,.056Zm-17.598-.289c0,2.278-1.848,4.117-4.117,4.117s-4.126-1.839-4.126-4.117v-16.496c0-2.241,1.783-4.061,4.005-4.117,.037-.009,.084-.009,.121-.009s.075,0,.112,.009c2.222,.056,4.005,1.876,4.005,4.117v16.496Z"/></g><g><g><path class="d" d="M390.857,119.916c0,34.252-14.364,65.152-37.395,86.998-3.135,2.977-6.436,5.784-9.879,8.41-2.736,2.089-5.567,4.059-8.481,5.907-5.078,3.222-10.412,6.073-15.967,8.513-14.743,6.475-31.042,10.072-48.178,10.072-66.218,0-119.899-53.682-119.899-119.899S204.74,.016,270.957,.016c12.054,0,23.694,1.777,34.666,5.089,.02,.004,.043,.012,.063,.02,.245,.071,.486,.146,.727,.221h.004c3.396,1.157,6.033,3.96,6.957,7.458,.233,.884,.359,1.816,.359,2.776,0,5.97-4.841,10.811-10.815,10.811-.971,0-1.911-.126-2.803-.367-.012-.004-.02-.004-.032-.012-.024-.004-.051-.012-.075-.02-.008,0-.012,0-.02-.008-.154-.047-.312-.095-.47-.142-.024-.004-.051-.012-.075-.024-1.571-.478-3.163-.912-4.758-1.311-7.703-1.911-15.639-2.874-23.73-2.874-13.278,0-26.146,2.598-38.248,7.715-11.703,4.951-22.213,12.038-31.247,21.072-9.034,9.034-16.121,19.544-21.072,31.247-5.117,12.102-7.715,24.969-7.715,38.248s2.598,26.146,7.715,38.248c4.951,11.703,12.038,22.213,21.072,31.247,9.034,9.034,19.544,16.121,31.247,21.072,12.102,5.117,24.969,7.715,38.248,7.715,8.09,0,16.026-.963,23.73-2.874,4.943-1.228,9.788-2.839,14.518-4.841,2.57-1.086,5.082-2.278,7.533-3.569,.805-.422,1.607-.857,2.397-1.307,5.678-3.19,11.012-6.941,15.967-11.221,1.836-1.587,3.621-3.246,5.35-4.975,9.034-9.034,16.121-19.544,21.072-31.247,5.117-12.102,7.715-24.969,7.715-38.248s-2.598-26.146-7.715-38.248c-4.951-11.703-12.038-22.213-21.072-31.247-1.729-1.729-3.514-3.388-5.35-4.975-1.836,1.583-3.625,3.246-5.354,4.975-9.034,9.034-16.121,19.544-21.068,31.247-5.121,12.102-7.715,24.969-7.715,38.248s2.594,26.146,7.715,38.248c1.05,2.491,2.199,4.928,3.443,7.304,.012,.02,.024,.043,.036,.063,.166,.316,.332,.632,.501,.948,.008,.004,.008,.012,.012,.02,.651,1.39,1.015,2.942,1.015,4.576,0,5.97-4.841,10.811-10.815,10.811-4.094,0-7.656-2.274-9.488-5.63-.012-.016-.02-.032-.028-.047-.079-.146-.154-.296-.229-.446-8.801-16.674-13.78-35.677-13.78-55.845,0-30.493,11.383-58.325,30.13-79.484,2.31-2.61,4.734-5.113,7.261-7.514,5.63-5.342,11.778-10.143,18.364-14.317,2.914,1.848,5.745,3.818,8.481,5.907,3.443,2.626,6.744,5.433,9.879,8.41,23.031,21.846,37.395,52.746,37.395,86.998Z"/><circle class="d" cx="239.041" cy="171.076" r="10.811"/><path class="d" d="M281.796,171.538c-.266,5.964-5.317,10.584-11.281,10.319-3.992-.178-7.382-2.499-9.104-5.804-.011-.012-.018-.028-.018-.04-.112-.226-.221-.452-.325-.678-.011-.024-.022-.044-.032-.069-8.03-17.044-12.151-36.234-11.254-56.363,.266-5.964,5.317-10.584,11.285-10.318,5.873,.262,10.441,5.161,10.323,11.005,.004,.004,.003,.012,0,.016v.004c.003,.008,.003,.012-.001,.02l-.021,.473c.004,.008,.003,.012,0,.02v.004s.003,.012,0,.016c-.551,13.168,1.472,26.048,6.017,38.277,1.002,2.697,2.114,5.335,3.339,7.915,.047,.097,.094,.198,.141,.295,.672,1.496,1.013,3.163,.935,4.911Z"/></g><g><path class="d" d="M380.596,1.632h-2.63v7.134h-2.114V1.632h-2.582V0h7.326V1.632Z"/><path class="d" d="M384.264,0l1.956,6.099,1.951-6.099h2.781V8.766h-2.119v-2.047l.205-4.19-2.119,6.237h-1.397l-2.125-6.243,.203,4.196v2.047h-2.113V0h2.776Z"/></g></g></g></g></g></svg>
