<?xml version="1.0" encoding="utf-8"?>
<!-- Generator: Adobe Illustrator 26.2.0, SVG Export Plug-In . SVG Version: 6.00 Build 0)  -->
<svg version="1.1" id="Layer_1" xmlns="http://www.w3.org/2000/svg" xmlns:xlink="http://www.w3.org/1999/xlink" x="0px" y="0px"
	 viewBox="0 0 29.2 29.2" style="enable-background:new 0 0 29.2 29.2;" xml:space="preserve">
<style type="text/css">
	.st0{fill:#FFFFFF;}
</style>
<g id="a">
</g>
<g id="b">
	<g id="c">
		<path class="st0" d="M14.6,0C6.6,0,0,6.6,0,14.6s6.6,14.6,14.6,14.6s14.6-6.6,14.6-14.6S22.7,0,14.6,0z M22.8,9.6
			c0,0,0,0.1-0.1,0.2c-0.4,0.5-0.8,0.9-1.3,1.3c-0.1,0.1-0.2,0.1-0.2,0.2c0,2.6-0.7,5.3-2.6,7.2c-2.4,2.4-6.1,3.1-9.4,2.2
			c-0.6-0.2-1.2-0.4-1.8-0.7c-0.2-0.1-0.4-0.2-0.6-0.3c-0.1,0-0.1-0.1,0-0.1c0,0,0.1,0,0.2,0c0.9,0.1,1.8,0,2.7-0.4
			c0.5-0.2,1.5-0.5,1.8-1c0,0,0,0,0,0c-0.1,0-0.2,0-0.4,0c-0.9-0.2-2.1-0.7-2.6-2.2c0-0.1,0-0.1,0.1-0.1c0.7,0.1,1,0,1.2,0
			c-0.1,0-0.3-0.1-0.4-0.1c-1.1-0.4-1.9-1.5-2.1-2.7c0-0.1,0-0.2,0-0.4c0-0.1,0.1-0.1,0.1-0.1C8.1,13,8.8,13,8.8,13
			c-0.1-0.1-0.3-0.2-0.4-0.4c-1-0.9-1.3-2.8-0.6-3.9c0.1-0.1,0.1-0.1,0.2,0c1.8,2,3.9,2.9,6.6,3.3c0.1,0,0.1,0,0.1-0.1
			c-0.1-0.5-0.1-0.9,0-1.4c0.1-0.5,0.3-0.9,0.6-1.3c0.3-0.4,0.7-0.7,1.1-0.9s0.9-0.4,1.4-0.4c0.5,0,1,0.1,1.4,0.2
			c0.3,0.1,0.6,0.3,0.9,0.6c0.1,0.1,0.1,0.1,0.2,0.2c0,0,0.1,0.1,0.1,0c0.7-0.2,1.3-0.4,1.9-0.7c0,0,0,0,0.1,0c0,0,0,0.1,0,0.1
			c-0.1,0.4-0.3,0.7-0.5,1c-0.1,0.2-0.5,0.7-0.8,0.7C21.6,10,22.2,9.8,22.8,9.6C22.8,9.6,22.8,9.6,22.8,9.6L22.8,9.6L22.8,9.6z"/>
	</g>
</g>
</svg>
