<?xml version="1.0" encoding="utf-8"?>
<!-- Generator: Adobe Illustrator 26.2.0, SVG Export Plug-In . SVG Version: 6.00 Build 0)  -->
<svg version="1.1" id="Layer_1" xmlns="http://www.w3.org/2000/svg" xmlns:xlink="http://www.w3.org/1999/xlink" x="0px" y="0px"
	 viewBox="0 0 29.2 29.2" style="enable-background:new 0 0 29.2 29.2;" xml:space="preserve">
<style type="text/css">
	.st0{fill:#FFFFFF;}
</style>
<g id="a">
</g>
<g id="b">
	<g id="c">
		<g>
			<path class="st0" d="M15.3,7.5c-3.8,0-6.8,3.1-6.8,6.8c0,1.2,0.3,2.5,1,3.5l0.2,0.3L9,20.7l2.6-0.7l0.3,0.2c1.1,0.6,2.3,1,3.5,1
				c3.8,0,6.8-3.1,6.8-6.8S19,7.5,15.3,7.5L15.3,7.5z M19.3,16.9c-0.2,0.6-0.9,1-1.5,1.1c-0.6,0.1-1.1-0.1-1.7-0.3
				c-0.5-0.2-1-0.4-1.4-0.7c-0.9-0.5-1.7-1.3-2.3-2.1c-0.2-0.3-0.4-0.5-0.5-0.8c-0.2-0.4-0.4-0.8-0.5-1.2c0-0.2-0.1-0.4-0.1-0.5
				c0-0.6,0.2-1.3,0.7-1.7c0.3-0.2,0.7-0.3,1-0.1c0.4,0.2,0.5,0.7,0.7,1.1c0.1,0.3,0.3,0.6,0.2,0.9c-0.1,0.3-0.3,0.6-0.5,0.8
				c-0.1,0.2-0.1,0.3,0,0.5c0.6,1.1,1.6,1.9,2.7,2.3c0.2,0.1,0.3,0,0.4-0.1c0.2-0.2,0.4-0.7,0.7-0.9c0.4-0.2,0.9,0.1,1.2,0.3
				c0.3,0.2,0.9,0.4,1,0.8C19.4,16.5,19.4,16.7,19.3,16.9L19.3,16.9z"/>
			<path class="st0" d="M14.6,0C6.6,0,0,6.6,0,14.6s6.6,14.6,14.6,14.6s14.6-6.6,14.6-14.6S22.7,0,14.6,0z M15.3,22.7
				c-1.4,0-2.8-0.4-4-1l-4.6,1.2l1.2-4.5c-0.7-1.2-1.1-2.6-1.1-4.1c0-4.6,3.8-8.4,8.4-8.4s8.4,3.8,8.4,8.4S19.9,22.7,15.3,22.7
				L15.3,22.7z"/>
		</g>
	</g>
</g>
</svg>
