<svg xmlns="http://www.w3.org/2000/svg" viewBox="0 0 898.02 183.56"><defs><style>.cls-1{fill:#fff;}</style></defs><g id="Layer_2" data-name="Layer 2"><g id="Layer_1-2" data-name="Layer 1"><path class="cls-1" d="M330.84,70.27h-.6a21.62,21.62,0,0,0-.05,43.23h.65a21.62,21.62,0,0,0,0-43.23Zm4.79,31.83a5.11,5.11,0,0,1-10.21,0V81.67a5.08,5.08,0,0,1,5-5.1h.27a5.1,5.1,0,0,1,5,5.1Z"/><path class="cls-1" d="M330.65,76.57h0Z"/><path class="cls-1" d="M330.65,76.57h0Z"/><path class="cls-1" d="M642.38,73.41a3.13,3.13,0,0,1-1,2.26.16.16,0,0,1-.07.07l-.07.07a.08.08,0,0,1,0,0,3.19,3.19,0,0,1-2,.72H632.9v9.71h0v15.92a21.66,21.66,0,0,0,1.4,7.67,21.12,21.12,0,0,0,1.81,3.66,20.55,20.55,0,0,1-5.45-1.2,21.63,21.63,0,0,1-14.26-19.81c0-.17,0-.35,0-.53V76.57h-3.08a3.16,3.16,0,0,1,0-6.31h3.11a21.63,21.63,0,0,0,16.08-16.52,18.07,18.07,0,0,0,.4-2.78.86.86,0,0,1,0,.28,1.41,1.41,0,0,1,0,.22,1.48,1.48,0,0,1,0,.21V70.26h6.34A3.15,3.15,0,0,1,642.38,73.41Z"/><path class="cls-1" d="M307.42,102.52l-.07.07a.07.07,0,0,1-.05,0,3.15,3.15,0,0,1-5.14-2.11V78.45a8.26,8.26,0,0,0-5.82-7.88l-.18,0a14,14,0,0,0-2.44-.26l-.9,0c-.36,0-.71,0-1.06.09,0,0,0,0,0,0a21.6,21.6,0,0,0-16.3,10.33V78.45a8.26,8.26,0,0,0-5.81-7.88l-.19,0a13.81,13.81,0,0,0-2.44-.26l-.9,0c-.36,0-.7,0-1.05.09,0,0,0,0,0,0A21.58,21.58,0,0,0,248.69,80.7V78.45a8.26,8.26,0,0,0-5.81-7.88l-.19,0a14,14,0,0,0-2.69-.26h-.56a13.33,13.33,0,0,0-12.61,11.11.12.12,0,0,1,.07-.07l.07-.07,0,0a3.22,3.22,0,0,1,2-.71,3.15,3.15,0,0,1,3.16,3.15v21.62a8.26,8.26,0,1,0,16.52,0V84a5.11,5.11,0,0,1,5.11-5.11,3,3,0,0,1,.42,0,5.1,5.1,0,0,1,4.37,3.33,3.15,3.15,0,0,1,.31,1.36v21.62a8.26,8.26,0,0,0,8.23,8.26h.06a8.26,8.26,0,0,0,8.23-8.26V84a5.11,5.11,0,0,1,5.12-5.11,2.88,2.88,0,0,1,.41,0,5.1,5.1,0,0,1,4.37,3.33,3.15,3.15,0,0,1,.31,1.36V97.06h0v8.31c0,.2,0,.38.05.57s0,.15,0,.22a8.25,8.25,0,0,0,5.75,7.1l.18,0a13.29,13.29,0,0,0,2.7.27h.55a13.35,13.35,0,0,0,12.62-11.11A.46.46,0,0,1,307.42,102.52Z"/><path class="cls-1" d="M732.24,102.52l-.07.07a.08.08,0,0,1,0,0,3.19,3.19,0,0,1-2,.72,3.15,3.15,0,0,1-3.15-2.83V78.45a8.26,8.26,0,0,0-5.82-7.88l-.18,0a14,14,0,0,0-2.44-.26l-.9,0q-.54,0-1,.09s0,0-.05,0A21.58,21.58,0,0,0,700.25,80.7V78.45a8.26,8.26,0,0,0-5.82-7.88l-.18,0a14,14,0,0,0-2.44-.26l-.9,0c-.36,0-.71,0-1.06.09,0,0,0,0,0,0a21.6,21.6,0,0,0-16.3,10.33V78.45a8.26,8.26,0,0,0-5.81-7.88l-.19,0a13.94,13.94,0,0,0-2.69-.26h-.56a13.33,13.33,0,0,0-12.61,11.11.15.15,0,0,1,.07-.07l.07-.07,0,0a3.25,3.25,0,0,1,2-.71A3.15,3.15,0,0,1,657,83.63v21.62a8.26,8.26,0,0,0,16.52,0V84a5.11,5.11,0,0,1,5.12-5.11,2.88,2.88,0,0,1,.41,0,5.1,5.1,0,0,1,4.37,3.33,3.15,3.15,0,0,1,.31,1.36v21.62a8.26,8.26,0,0,0,8.24,8.26H692a8.26,8.26,0,0,0,8.23-8.26V84a5.11,5.11,0,0,1,5.11-5.11,2.75,2.75,0,0,1,.41,0,5.12,5.12,0,0,1,4.38,3.33,3.3,3.3,0,0,1,.31,1.36V97.06h0v8.31c0,.2,0,.38,0,.57a1.66,1.66,0,0,0,0,.22,8.23,8.23,0,0,0,5.74,7.1l.19,0a13.2,13.2,0,0,0,2.69.27h.56a13.34,13.34,0,0,0,12.61-11.11A.23.23,0,0,1,732.24,102.52Z"/><path class="cls-1" d="M455.23,102.52l-.07.07,0,0a3.2,3.2,0,0,1-2,.72,3.15,3.15,0,0,1-3.14-2.83V78.45a8.26,8.26,0,0,0-5.82-7.88l-.18,0a14,14,0,0,0-2.44-.26l-.9,0c-.36,0-.71,0-1.06.09,0,0,0,0,0,0A21.56,21.56,0,0,0,423.24,80.7V78.45a8.26,8.26,0,0,0-5.82-7.88l-.18,0a14,14,0,0,0-2.7-.26H414a13.34,13.34,0,0,0-12.62,11.11.15.15,0,0,1,.07-.07l.07-.07a.12.12,0,0,1,.05,0,3.2,3.2,0,0,1,2-.71,3.15,3.15,0,0,1,3.15,3.15v21.62a8.27,8.27,0,0,0,16.53,0V84a5.11,5.11,0,0,1,5.11-5.11,2.82,2.82,0,0,1,.41,0,5.09,5.09,0,0,1,4.37,3.33,3.16,3.16,0,0,1,.32,1.36V97.06h0v8.31c0,.2,0,.38,0,.57s0,.14,0,.21a8.26,8.26,0,0,0,5.75,7.11l.19,0a13.2,13.2,0,0,0,2.69.27h.56a13.34,13.34,0,0,0,12.61-11.11Z"/><path class="cls-1" d="M810.37,102.52l-.07.07,0,0a3.16,3.16,0,0,1-5.15-2.11V78.45a8.26,8.26,0,0,0-5.81-7.88l-.19,0a13.81,13.81,0,0,0-2.44-.26l-.9,0c-.36,0-.7,0-1,.09,0,0,0,0-.05,0A21.58,21.58,0,0,0,778.37,80.7V78.45a8.26,8.26,0,0,0-5.81-7.88l-.19,0a14,14,0,0,0-2.69-.26h-.56a13.33,13.33,0,0,0-12.61,11.11.12.12,0,0,1,.07-.07l.06-.07.05,0a3.22,3.22,0,0,1,2-.71,3.15,3.15,0,0,1,3.16,3.15v21.62a8.26,8.26,0,1,0,16.52,0V84a5.11,5.11,0,0,1,5.11-5.11,3,3,0,0,1,.42,0,5.1,5.1,0,0,1,4.37,3.33,3.15,3.15,0,0,1,.31,1.36V97.06h0v8.31a5.25,5.25,0,0,0,0,.57c0,.07,0,.14,0,.21a8.26,8.26,0,0,0,5.76,7.11l.18,0a13.27,13.27,0,0,0,2.69.27h.56a13.33,13.33,0,0,0,12.61-11.11Z"/><circle class="cls-1" cx="504.57" cy="59.98" r="8.26"/><path class="cls-1" d="M512.83,78.46v26.79a8.27,8.27,0,1,1-16.53,0V83.64a3.15,3.15,0,0,0-5.15-2.44.06.06,0,0,0,0,0l-.07.07-.07.06a13.35,13.35,0,0,1,12.62-11.11h.55a13.29,13.29,0,0,1,2.7.27l.18,0A8.28,8.28,0,0,1,512.83,78.46Z"/><circle class="cls-1" cx="744.35" cy="59.98" r="8.26"/><path class="cls-1" d="M752.61,78.46v26.79a8.26,8.26,0,1,1-16.52,0V83.64a3.15,3.15,0,0,0-5.16-2.44.07.07,0,0,0,0,0l-.07.07a.13.13,0,0,0-.07.06,13.34,13.34,0,0,1,12.61-11.11h.56a13.27,13.27,0,0,1,2.69.27l.19,0A8.28,8.28,0,0,1,752.61,78.46Z"/><path class="cls-1" d="M330.65,76.57h0Z"/><path class="cls-1" d="M486.07,51.61v53.64a8.26,8.26,0,1,1-16.52,0V56.79a3.15,3.15,0,0,0-5.16-2.44.1.1,0,0,0-.05,0l-.07.07-.07.07a13.34,13.34,0,0,1,12.62-11.11h.55a14,14,0,0,1,2.7.26l.18,0A8.27,8.27,0,0,1,486.07,51.61Z"/><path class="cls-1" d="M376.86,76.56h0Z"/><path class="cls-1" d="M377.18,70.27h-.6a21.62,21.62,0,0,0-.05,43.23h.65a21.62,21.62,0,0,0,0-43.23ZM382,102.1a5.11,5.11,0,0,1-10.21,0V81.67a5.09,5.09,0,0,1,5-5.1H377a5.1,5.1,0,0,1,5,5.1Z"/><path class="cls-1" d="M377,76.57h0Z"/><path class="cls-1" d="M377,76.57h0Z"/><path class="cls-1" d="M539,70.27h-.61a21.61,21.61,0,0,0-16.7,35,17.4,17.4,0,0,0,1.77,2,21.43,21.43,0,0,0,13.91,6.25h0l1.63,0a20.32,20.32,0,0,0,4.78-.6v15.92a21.44,21.44,0,0,1-3.2,11.33,21.61,21.61,0,0,0,19.71-21.54V91.89A21.6,21.6,0,0,0,539,70.27Zm4.78,31.83a5.11,5.11,0,0,1-10.21,0V81.67a5.09,5.09,0,0,1,5-5.1h.28a5.1,5.1,0,0,1,5,5.1Z"/><path class="cls-1" d="M603.55,78.47a19.93,19.93,0,0,0-1.73-2,21.57,21.57,0,0,0-13.9-6.22l-.91,0h-.79a21,21,0,0,0-4.72.6V55a21.52,21.52,0,0,1,3.29-11.46A21.61,21.61,0,0,0,565,65v40.23a8.25,8.25,0,0,0,8.26,8.25,8.28,8.28,0,0,0,8.25-8.25V81.68a5.11,5.11,0,1,1,10.21,0v23.58a8.2,8.2,0,0,0,3.28,6.56,8.1,8.1,0,0,0,5,1.69,8.26,8.26,0,0,0,8.26-8.25V91.89A21.39,21.39,0,0,0,603.55,78.47Z"/><line class="cls-1" x1="564.99" y1="105.49" x2="564.99" y2="105.26"/><path class="cls-1" d="M898,73.41a3.16,3.16,0,0,1-3.09,3.16h-.43a20.2,20.2,0,0,0-2.81.19,21.19,21.19,0,0,0-9.55,3.69v24.81a8,8,0,0,1-.57,3,8.26,8.26,0,0,1-16-3V83.63a3.15,3.15,0,0,0-3.16-3.15,3.22,3.22,0,0,0-2,.71s0,0-.05,0l-.07.07a.22.22,0,0,0-.07.07,13.34,13.34,0,0,1,12.62-11.11h.55a14,14,0,0,1,2.7.26l.18,0a8.25,8.25,0,0,1,5.26,4.92A21.45,21.45,0,0,1,894.3,70.3h0c.27,0,.55,0,.83,0h0a3.31,3.31,0,0,1,1.47.54A3.18,3.18,0,0,1,898,73.41Z"/><path class="cls-1" d="M859.24,102.46l-.07.07a.07.07,0,0,1,0,0,3.15,3.15,0,0,1-5.15-2.44V78.52a8.27,8.27,0,0,0-13.26-6.58,21.18,21.18,0,0,0-8.05-1.67h-.61a21.62,21.62,0,1,0,8.62,41.58,7.91,7.91,0,0,0,2.59,1.35l.18,0a14,14,0,0,0,2.7.26h.55a13.34,13.34,0,0,0,12.62-11.11A.45.45,0,0,1,859.24,102.46Zm-21.8-.36a5.11,5.11,0,0,1-10.21,0V81.67a5.09,5.09,0,0,1,5-5.1h.29a5.09,5.09,0,0,1,5,5.1Z"/><path class="cls-1" d="M183.56,91.78a91.95,91.95,0,0,1-36.19,73c-2.09,1.6-4.26,3.11-6.49,4.52A91.77,91.77,0,1,1,118.31,3.9h0l.56.17h0a8.28,8.28,0,0,1-4.82,15.83H114l-.36-.11-.06,0c-1.2-.36-2.42-.7-3.64-1a75.25,75.25,0,1,0,11.12,142.36c2-.83,3.89-1.75,5.76-2.74.62-.32,1.23-.65,1.84-1a74.3,74.3,0,0,0,12.22-8.59c1.4-1.21,2.77-2.48,4.09-3.8a75.16,75.16,0,0,0,0-106.4c-1.32-1.32-2.69-2.59-4.09-3.8-1.41,1.21-2.77,2.48-4.1,3.8a75.37,75.37,0,0,0-16.13,82.48c.81,1.9,1.69,3.77,2.64,5.59l0,0c.12.24.25.48.38.72v0a8.19,8.19,0,0,1,.78,3.5,8.28,8.28,0,0,1-15.54,4l0,0c-.06-.11-.11-.23-.17-.34A91.83,91.83,0,0,1,121.26,30.94c1.77-2,3.63-3.92,5.56-5.75a91.65,91.65,0,0,1,14.06-11c2.23,1.41,4.4,2.92,6.49,4.52a91.95,91.95,0,0,1,36.19,73Z"/><circle class="cls-1" cx="67.35" cy="130.94" r="8.28"/><path class="cls-1" d="M100.08,131.3a8.28,8.28,0,0,1-15.61,3.45,0,0,0,0,1,0,0c-.09-.17-.17-.35-.25-.52l0,0A91.45,91.45,0,0,1,75.57,91a8.27,8.27,0,0,1,16.54.53h0v0l0,.36v0h0a74.71,74.71,0,0,0,4.61,29.3q1.14,3.1,2.55,6.06l.11.23A8.29,8.29,0,0,1,100.08,131.3Z"/><path class="cls-1" d="M176,1.19h-1.92V6.4h-1.55V1.19h-1.88V0H176Z"/><path class="cls-1" d="M178.67,0l1.43,4.45L181.52,0h2V6.4H182V4.9l.15-3.05L180.61,6.4h-1L178,1.84l.15,3.06V6.4h-1.54V0Z"/></g></g></svg>